<svg width="1444" height="1025" viewBox="0 0 1444 1025" fill="none" xmlns="http://www.w3.org/2000/svg">
<rect y="1" width="1440" height="1024" fill="white"/>
<rect y="1" width="1440" height="1024" fill="white"/>
<rect x="1046" y="487" width="200" height="200" rx="100" fill="#FDB24B"/>
<rect x="1100" y="772" width="92" height="92" rx="46" fill="#22E6FE"/>
<path fill-rule="evenodd" clip-rule="evenodd" d="M877.649 246.691C1007.25 269.252 1135.84 291.637 1218.5 399.5C1273.15 470.809 1351.73 507.585 1443 519.896V1L477.461 1C556.01 190.701 717.602 218.83 877.649 246.691Z" fill="#EE3D92" fill-opacity="0.85"/>
<path d="M1218.5 399.5L1218.1 399.804L1218.1 399.804L1218.5 399.5ZM877.649 246.691L877.563 247.184L877.649 246.691ZM1443 519.896L1442.93 520.392L1443.5 520.468V519.896H1443ZM1443 1H1443.5V0.5H1443V1ZM477.461 1V0.5L476.713 0.5L476.999 1.19128L477.461 1ZM1218.9 399.196C1136.1 291.153 1007.3 268.753 877.734 246.199L877.563 247.184C1007.21 269.752 1135.58 292.121 1218.1 399.804L1218.9 399.196ZM1443.07 519.401C1351.9 507.103 1273.44 470.375 1218.9 399.196L1218.1 399.804C1272.85 471.244 1351.57 508.068 1442.93 520.392L1443.07 519.401ZM1442.5 1V519.896H1443.5V1H1442.5ZM477.461 1.5L1443 1.5V0.5L477.461 0.5V1.5ZM877.734 246.199C717.658 218.333 556.355 190.228 477.923 0.808717L476.999 1.19128C555.664 191.173 717.546 219.328 877.563 247.184L877.734 246.199Z" fill="#D575CF"/>
<path fill-rule="evenodd" clip-rule="evenodd" d="M1443 241C1288.91 241 1164 365.913 1164 520C1164 674.087 1288.91 799 1443 799V241Z" fill="#34D6FD" fill-opacity="0.82"/>
</svg>
